<?xml version="1.0" standalone="no"?><!DOCTYPE svg PUBLIC "-//W3C//DTD SVG 1.1//EN" "http://www.w3.org/Graphics/SVG/1.1/DTD/svg11.dtd"><svg t="1577611343297" class="icon" viewBox="0 0 1378 1024" version="1.1" xmlns="http://www.w3.org/2000/svg" p-id="2387" xmlns:xlink="http://www.w3.org/1999/xlink" width="269.140625" height="200"><defs><style type="text/css"></style></defs><path d="M1376.610462 506.998154l-318.857847-317.046154v237.410462H472.300308v159.350153h585.452307v237.292308l318.857847-317.006769" p-id="2388" fill="#969696"></path><path d="M788.48 915.534769c0 19.731692-16.147692 35.84-36.036923 35.84H108.425846a35.997538 35.997538 0 0 1-36.036923-35.84V108.071385c0-19.692308 16.147692-35.84 36.036923-35.84h644.017231c19.889231 0 36.036923 16.147692 36.036923 35.84v148.558769h72.073846V108.071385A107.913846 107.913846 0 0 0 752.443077 0.630154H108.425846A107.913846 107.913846 0 0 0 0.393846 108.071385v807.463384a107.913846 107.913846 0 0 0 108.071385 107.480616h644.017231a107.913846 107.913846 0 0 0 108.110769-107.480616v-148.519384h-72.073846v148.519384" p-id="2389" fill="#969696"></path></svg>