<?xml version="1.0" standalone="no"?><!DOCTYPE svg PUBLIC "-//W3C//DTD SVG 1.1//EN" "http://www.w3.org/Graphics/SVG/1.1/DTD/svg11.dtd"><svg t="1577610060500"  fill="#969696" class="icon" viewBox="0 0 1024 1024" version="1.1" xmlns="http://www.w3.org/2000/svg" p-id="7051" xmlns:xlink="http://www.w3.org/1999/xlink" width="200" height="200"><defs><style type="text/css"></style></defs><path d="M931.2 467.2c-12.8 0-22.4 9.6-22.4 22.4v329.6c0 22.4-19.2 41.6-41.6 41.6H134.4c-22.4 0-41.6-19.2-41.6-41.6V256c0-22.4 19.2-41.6 41.6-41.6h294.4c12.8 0 22.4-9.6 22.4-22.4 0-12.8-9.6-22.4-22.4-22.4H134.4c-48 0-89.6 38.4-89.6 89.6v563.2c0 48 38.4 89.6 89.6 89.6h732.8c48 0 89.6-38.4 89.6-89.6V492.8c0-12.8-9.6-25.6-25.6-25.6z m38.4-201.6l-96-108.8c-9.6-9.6-22.4-9.6-35.2-3.2-9.6 9.6-9.6 22.4-3.2 35.2l48 57.6c-67.2 0-147.2 16-224 51.2C524.8 361.6 432 483.2 400 668.8c-3.2 12.8 6.4 25.6 19.2 28.8 12.8 3.2 25.6-6.4 28.8-19.2 28.8-169.6 112-278.4 230.4-336 44.8-22.4 96-35.2 147.2-41.6 25.6-3.2 51.2-6.4 73.6-3.2L816 371.2c-9.6 9.6-9.6 22.4-3.2 35.2 9.6 9.6 22.4 9.6 35.2 3.2l115.2-99.2c16-19.2 16-35.2 6.4-44.8z" p-id="7052"></path></svg>