<?xml version="1.0" standalone="no"?><!DOCTYPE svg PUBLIC "-//W3C//DTD SVG 1.1//EN" "http://www.w3.org/Graphics/SVG/1.1/DTD/svg11.dtd"><svg t="1577609905124" class="icon" viewBox="0 0 1024 1024" version="1.1" xmlns="http://www.w3.org/2000/svg" p-id="5040" xmlns:xlink="http://www.w3.org/1999/xlink" width="200" height="200"><defs><style type="text/css"></style></defs><path d="M1023.312026 186.13945v17.071324h-161.153293a26.232934 26.232934 0 0 1-19.176786-8.308044 72.894551 72.894551 0 0 1-13.429441-19.176787 103.452219 103.452219 0 0 1-8.308044-22.363434 82.454492 82.454492 0 0 1 0-17.924889V0.63107h3.186647a63.960558 63.960558 0 0 1 17.924889 0 86.437801 86.437801 0 0 1 21.111537 10.242794q12.177544 7.682096 30.045529 21.737485t45.523529 38.353573q29.419581 27.484831 46.718521 45.523529a319.632077 319.632077 0 0 1 26.858882 30.728382 63.960558 63.960558 0 0 1 11.380883 21.111537 63.846749 63.846749 0 0 1-0.625949 17.924889z m-210.546322 70.333852a117.052374 117.052374 0 0 1-35.792874-33.232176 141.293653 141.293653 0 0 1-20.485588-43.47497 168.266344 168.266344 0 0 1-6.373294-45.523529V0.63107H127.921116a92.75419 92.75419 0 0 0-47.970418 13.429441 170.371807 170.371807 0 0 0-69.081955 79.666176A121.547822 121.547822 0 0 0 0 141.355679v741.862808a104.87483 104.87483 0 0 0 14.05539 52.465867 183.630535 183.630535 0 0 0 35.166926 44.783771 191.767866 191.767866 0 0 0 46.035668 31.354331 104.248881 104.248881 0 0 0 45.523529 12.177544h431.050915l-60.091059-56.904411a73.975734 73.975734 0 0 1-12.177544-88.88469 72.894551 72.894551 0 0 1-51.783014-60.091059H204.059218a63.960558 63.960558 0 0 1-47.970418-20.485588 66.976492 66.976492 0 0 1 47.970418-116.36952h262.215527a73.520499 73.520499 0 0 1 35.963588-23.786044 73.577404 73.577404 0 0 1 9.616845-88.258742l24.298184-24.298183H204.059218a63.960558 63.960558 0 0 1-67.830058-67.830059 63.960558 63.960558 0 0 1 19.802735-48.596367 63.960558 63.960558 0 0 1 47.970419-20.485588h613.998596a68.797433 68.797433 0 0 1 67.773154 69.081955 68.285293 68.285293 0 0 1-4.495449 23.672235 73.975734 73.975734 0 0 1 85.072095 11.380883l54.343713 54.343712V272.463442h-156.657844a97.875587 97.875587 0 0 1-51.21397-15.99014z m210.546322 473.273988v76.764051a10.242794 10.242794 0 0 1-7.682096 10.242794l-49.905168 12.803492a203.205652 203.205652 0 0 1-14.738243 35.166926l26.232934 44.157823a10.242794 10.242794 0 0 1 0 12.803493l-54.343713 54.343712a10.242794 10.242794 0 0 1-12.803493 0l-44.157823-26.232933a209.806564 209.806564 0 0 1-35.792874 14.738242l-12.803493 49.905169a10.242794 10.242794 0 0 1-10.242794 7.682095h-77.959043a10.242794 10.242794 0 0 1-10.242794-7.682095l-15.364191-47.970419a205.311115 205.311115 0 0 1-35.166926-14.738242l-44.100919 26.232933a10.242794 10.242794 0 0 1-12.803492 0l-54.343713-54.343712a10.242794 10.242794 0 0 1 0-12.803493l26.232934-44.157823a209.180615 209.180615 0 0 1-14.05539-34.540977l-49.962073-12.860397a10.242794 10.242794 0 0 1-7.682095-12.803493v-76.707146a10.242794 10.242794 0 0 1 7.682095-10.242794l49.905169-15.364191a209.977277 209.977277 0 0 1 14.738242-35.166926l-26.232933-44.100919a10.242794 10.242794 0 0 1 0-12.803492l54.343712-54.343713a10.242794 10.242794 0 0 1 12.803493 0l44.100918 26.232934a207.245865 207.245865 0 0 1 34.540978-14.05539l12.803493-49.962073a10.242794 10.242794 0 0 1 12.803492-7.682095h76.764051a10.242794 10.242794 0 0 1 10.242794 7.682095l12.803492 49.905169a209.920373 209.920373 0 0 1 35.792875 14.738242l44.157823-26.232933a10.242794 10.242794 0 0 1 12.803492 0l54.343713 54.343712a10.242794 10.242794 0 0 1 0 12.803493l-26.232934 44.100918a207.30277 207.30277 0 0 1 14.738243 35.792875l49.905169 12.803492a10.242794 10.242794 0 0 1 8.933992 11.380883z m-142.602455 38.353573a113.182874 113.182874 0 1 0-113.182873 113.182874 113.182874 113.182874 0 0 0 113.182873-113.182874z m0 0"  fill="#969696" p-id="5041"></path></svg>